<svg viewBox="-1.5 -1.5 48 48" xmlns="http://www.w3.org/2000/svg" id="Screwdriver--Streamline-Ultimate" height="48" width="48">
  <desc>
    Screwdriver Streamline Icon: https://streamlinehq.com
  </desc>
  <path d="m22.936875 26.038125 -3.976875 -3.976875a2.8125 2.8125 0 0 0 -3.97875 0L3.050625 33.99375a5.625 5.625 0 0 0 7.95375 7.95375l11.9325 -11.9325a2.8125 2.8125 0 0 0 0 -3.976875Z" fill="none" stroke="currentColor" stroke-linecap="round" stroke-linejoin="round" stroke-width="3"></path>
  <path d="M35.679375 2.7281250000000004a2.9625000000000004 2.9625000000000004 0 0 1 4.56 -0.45187499999999997l2.4825 2.4825a2.9625000000000004 2.9625000000000004 0 0 1 -0.45187499999999997 4.56l-4.635 3.091875a3.6393750000000002 3.6393750000000002 0 0 1 -5.0475 -5.0475Z" fill="none" stroke="currentColor" stroke-linecap="round" stroke-linejoin="round" stroke-width="3"></path>
  <path d="m33.043125 11.955 -12.095625 12.095625" fill="none" stroke="currentColor" stroke-linecap="round" stroke-linejoin="round" stroke-width="3"></path>
</svg>